<svg xmlns="http://www.w3.org/2000/svg" viewBox="0 0 245 240" fill="none">
  <path fill="#5865F2" d="M104.4 104.1c-5.7 0-10.2 5-10.2 11.1 0 6.1 4.6 11.1 10.2 11.1 5.7 0 10.2-5 10.2-11.1.1-6.1-4.5-11.1-10.2-11.1Zm36.2 0c-5.7 0-10.2 5-10.2 11.1 0 6.1 4.6 11.1 10.2 11.1 5.7 0 10.2-5 10.2-11.1 0-6.1-4.5-11.1-10.2-11.1Z"/>
  <path fill="#5865F2" d="M189.5 20h-134C24.4 20 10 34.5 10 52.1v135.7c0 17.6 14.4 32.1 32.1 32.1h113.2l-5.3-18.5 12.8 11.9 12.1 11.2L235 236V52.1C235 34.5 220.6 20 202.9 20h-13.4Zm-39.9 135.3s-3.7-4.4-6.8-8.3c13.5-3.8 18.6-12.3 18.6-12.3-4.2 2.7-8.2 4.5-11.8 5.7-5.1 2.1-10 3.5-14.8 4.3-9.8 1.8-18.8 1.3-26.6-.1-5.9-1.1-11-2.7-15.2-4.3-2.4-.9-5-2-7.6-3.4-.3-.2-.6-.3-.9-.5-.2-.1-.3-.2-.5-.3-2.2-1.2-3.4-2-3.4-2s4.9 8.3 17.9 12.2c-3.1 3.9-6.9 8.5-6.9 8.5-22.8-.7-31.5-15.6-31.5-15.6 0-33 14.8-59.8 14.8-59.8 14.8-11.1 28.9-10.8 28.9-10.8l1 1.2c-18.5 5.3-27 13.3-27 13.3s2.2-1.2 5.8-2.8c10.4-4.6 18.7-5.9 22.1-6.2.6-.1 1.1-.2 1.7-.2 6.1-.8 13-1 20.3-.2 9.6 1.1 19.9 3.9 30.4 9.6 0 0-8.1-7.7-25.6-13l1.4-1.6s14.1-.3 28.9 10.8c0 0 14.8 26.8 14.8 59.8 0 0-8.7 14.9-31.6 15.6Z"/>
</svg>
